<svg xmlns="http://www.w3.org/2000/svg" viewBox="0 0 691.9 78"><title>Infonieve</title><path d="M566.54,34.15q1.74-4.53-4.94-4.53t-8.42,4.53l-6.42,16.74h13.35Z" transform="translate(-2.38 -11.6)" style="fill:#fff"/><path d="M694.28,55.44a11.89,11.89,0,0,0-.35-2.87,11.28,11.28,0,0,0-2-4.09,12.2,12.2,0,0,0-3.1-2.85,16.12,16.12,0,0,0-3.72-1.76,29.06,29.06,0,0,0-5.91-1.22,61.83,61.83,0,0,0-6.88-.34,60,60,0,0,0-9.78.72,30.25,30.25,0,0,0-8.29,2.51h0a20.36,20.36,0,0,0-3,1.8A11.68,11.68,0,0,0,649.78,46l0,0A14.59,14.59,0,0,0,646,44a26.44,26.44,0,0,0-5.88-1.3,66.3,66.3,0,0,0-15.91.27,28.15,28.15,0,0,0-7.71,2.24h0a18.75,18.75,0,0,0-5.64,4.09,18.21,18.21,0,0,0-3.69,5.94h0l-3.18,8.28a7.69,7.69,0,0,0-1.24-.11H587.58a7.45,7.45,0,0,0,.33-0.69L597.39,38h0a22.86,22.86,0,0,0,1.66-8.17,15.64,15.64,0,0,0-1.56-6.94,15.43,15.43,0,0,0-4.58-5.48l0,0a21.57,21.57,0,0,0-5.59-2.92,45.43,45.43,0,0,0-10-2.2,109.31,109.31,0,0,0-12.73-.65,110.52,110.52,0,0,0-17,1.16,53.61,53.61,0,0,0-10.62,2.69,7.66,7.66,0,0,0-6.62-3.85H503.55a7.69,7.69,0,0,0-6.43,3.5l-6.06,9.37,0.5-4.34A7.66,7.66,0,0,0,484,11.6H457.25a7.65,7.65,0,0,0-6.67,3.89,26,26,0,0,0-2.44-1,45.43,45.43,0,0,0-10-2.2,109.31,109.31,0,0,0-12.73-.65,110.52,110.52,0,0,0-17,1.16A48.83,48.83,0,0,0,395,16.6h0c-0.75.36-1.48,0.76-2.2,1.17a7.63,7.63,0,0,0-7.5-6.17H359a7.66,7.66,0,0,0-7.15,4.91l-1.32,3.43a17.25,17.25,0,0,0-5.39-4.3,33.82,33.82,0,0,0-10.46-3.16,87.64,87.64,0,0,0-13.37-.88,38,38,0,0,0-6.45.54,7.62,7.62,0,0,0-2.81-.54h-25A7.66,7.66,0,0,0,280,16.52L279,19a19.24,19.24,0,0,0-4.51-3.16,37.16,37.16,0,0,0-11.29-3.33,97.8,97.8,0,0,0-14.63-.95,111.51,111.51,0,0,0-15.45,1,63.8,63.8,0,0,0-9.78,2.11,35.93,35.93,0,0,0-11.92,6L211,21c-0.27-.37-0.55-0.74-0.84-1.08a18.09,18.09,0,0,0-6-4.37A39.21,39.21,0,0,0,193,12.48a106,106,0,0,0-14.63-.87,120.18,120.18,0,0,0-15.23.87,67,67,0,0,0-9.58,1.89,35.65,35.65,0,0,0-11.67,5.43,23.27,23.27,0,0,0-4.45,4.29,20.67,20.67,0,0,0-2.69,4.51,13.72,13.72,0,0,0-3-8.53,17.15,17.15,0,0,0-5.6-4.47,34.12,34.12,0,0,0-10.45-3.12,88.12,88.12,0,0,0-13.33-.88,38,38,0,0,0-6.45.54A7.62,7.62,0,0,0,93,11.6h-25A7.63,7.63,0,0,0,64,12.8a7.63,7.63,0,0,0-4.1-1.2H33.61a7.66,7.66,0,0,0-7.15,4.91L22.13,27.8A7.69,7.69,0,0,0,21.65,30a7.63,7.63,0,0,0-1.12,2l-17.64,46A7.66,7.66,0,0,0,10,88.31H36.32a7.63,7.63,0,0,0,4.08-1.2,7.63,7.63,0,0,0,4.1,1.2h25a7.66,7.66,0,0,0,6-3,7.61,7.61,0,0,0,6,3h26.28A7.66,7.66,0,0,0,115,83.4l0.44-1.15a7.64,7.64,0,0,0,7.48,6.07h26.28a7.66,7.66,0,0,0,7.15-4.91l6.06-15.8h27.53a17,17,0,0,0-.48,3.9,14.37,14.37,0,0,0,3.19,9.12,18.11,18.11,0,0,0,5.93,4.7,37.08,37.08,0,0,0,11.3,3.34,97.79,97.79,0,0,0,14.64.95,111.54,111.54,0,0,0,15.45-1,63.72,63.72,0,0,0,9.78-2.11,41.76,41.76,0,0,0,6.84-2.74,7.76,7.76,0,0,0,.67,1.21,7.62,7.62,0,0,0,6.31,3.32h25a7.66,7.66,0,0,0,6-3,7.61,7.61,0,0,0,6,3h26.28A7.65,7.65,0,0,0,331.17,87a7.68,7.68,0,0,0,4.3,1.33h26.28a7.66,7.66,0,0,0,7.15-4.91l0.74-1.92a18.2,18.2,0,0,0,5.81,4.2,39.17,39.17,0,0,0,11.22,3.06,106,106,0,0,0,14.64.87,120.24,120.24,0,0,0,15.23-.87,66.91,66.91,0,0,0,9.58-1.89,35.64,35.64,0,0,0,11.67-5.43,23.35,23.35,0,0,0,4.45-4.29,20.62,20.62,0,0,0,3.06-5.38l1.63-4.25a7.67,7.67,0,0,0,.5-2.59A7.67,7.67,0,0,0,448.1,64l-0.54,16.4a7.66,7.66,0,0,0,7.65,7.91h29.94a7.67,7.67,0,0,0,6.17-3.12L507.64,63l-1.26,3.28a16.73,16.73,0,0,0-1.18,6,13.63,13.63,0,0,0,1,5.15,13.86,13.86,0,0,0,2.4,3.89,18.07,18.07,0,0,0,6,4.37,39.17,39.17,0,0,0,11.22,3.06,106,106,0,0,0,14.64.87,120.24,120.24,0,0,0,15.23-.87,66.91,66.91,0,0,0,9.58-1.89,41.09,41.09,0,0,0,7.55-2.89,7.77,7.77,0,0,0,.59,1,7.62,7.62,0,0,0,6.31,3.32H599a7.65,7.65,0,0,0,5.85-2.73,14.81,14.81,0,0,0,1.81,1,23.27,23.27,0,0,0,6.72,1.86,56.68,56.68,0,0,0,7.86.48,63.84,63.84,0,0,0,8.1-.47,37.36,37.36,0,0,0,5.34-1.06,21.92,21.92,0,0,0,6.73-3.08,12.15,12.15,0,0,0,1.9,1.49l0,0a15.93,15.93,0,0,0,3.78,1.67,31.3,31.3,0,0,0,6,1.11c2.15,0.22,4.5.31,7.11,0.31a65.41,65.41,0,0,0,10.15-.7,28.9,28.9,0,0,0,8.41-2.52h0a18.38,18.38,0,0,0,5.73-4.49A21.16,21.16,0,0,0,688.17,75a14.31,14.31,0,0,0,1-5.13,12.12,12.12,0,0,0-.31-2.72,7.63,7.63,0,0,0,3.39-3.9l1-2.59h0A14.7,14.7,0,0,0,694.28,55.44ZM359,19.26h26.28L381,30.54H354.71Zm-325.43,0H59.89L55.56,30.54H29.28Zm2.71,61.39H10l17.64-46H54Zm71.5,0H81.54L99.72,33.32q1.42-3.7-4.51-3.7-6.14,0-7.55,3.7L69.48,80.66h-25L68.07,19.26H93l-0.64,1.66a29.59,29.59,0,0,1,9.9-1.66q29.08,0,24,13.22Zm67.62-51q-6.68,0-8.31,4.25l-5.89,15.35h37.47L194.6,59.94H157.12l-8,20.71H122.9l8-20.71h-8.61l4.12-10.73H135l6.53-17q5-12.94,36.84-12.94t26.91,12.94l-5.11,13.31H176l4.47-11.65Q182.12,29.62,175.44,29.62Zm85.68,30.85c1,3.43-3.25,6.43-6.49,5.66-1.42-.34-2.26-1.43-3.45-1.8-1.65,3.26-3,9.81-8,8.84-3.72-.72-0.25-6.56.55-8.56,0.92-2.3,1.7-4.39,2.49-6.22-3.88-2.28-8.11-4.23-12.15-6.35-1.79,5-3.32,10.22-4.84,15.47,1.7,0.78,3.27,1.46,5.25,2.35s5.17,1.61,4.7,4.28a4.81,4.81,0,0,1-5.25,3.59c-1.84-.22-3.21-1.66-4.7-2.21-0.7,2.78-2.71,8.06-6.49,6.63-2.17-.82-0.81-4.32-0.14-6.22-2-.13-4.41,3.06-7.32,2.35-2-.49-1.45-3.39-0.14-4.69s4-2.22,6.08-3.18,4.5-1.92,6.35-2.76c1.51-5.16,3.16-10.2,4.7-15.33-5.11,2.49-10.4,6-15.61,8.84-1.15,3.34-1.19,10.68-3.87,12.7-1,.73-3.14,1.29-4,0-0.62-2.12.57-4.25,0.83-6.35-1.59.3-3.69,3-6.08,1.66-1.51-3.77,2.56-5.28,4.83-6.63-0.94-1.31-3.11-1.62-3.32-3.45a4.34,4.34,0,0,1,4-4.28c1.42,0,2.82,1.53,3.87,2.35,1.28,1,2.33,1.9,3.45,2.76,5.13-3,10.28-5.93,15.33-9-3.46-2-7.24-3.71-10.77-5.66-2,1.4-4,2.78-5.94,4.14s-3.66,3.26-6.49,3.45a1.94,1.94,0,0,0-.69-0.41c-1.3-4.29,3.66-5.67,5.94-7.74-0.78-.83-2.28-0.95-2.76-2.07a4.39,4.39,0,0,1,7.18-3.73c1.73-3.26,2.67-9.31,7.73-7.87,1,1.88-.79,4.82-1.66,7s-1.51,4-2.21,5.66c3.55,2,7.27,3.87,11,5.66,1.73-5,3.19-10.25,4.83-15.33-1.69-.33-3.5-1-5.25-1.52s-3.75-.51-4.56-2.07c0.11-5,5.6-5.94,9.67-4,0.79-3.71,3.57-8.76,7-7.35,2.11,1.15.35,4,0,5.7,2.88-.72,5.94-5.06,9.94-3.31a0.51,0.51,0,0,1,.28.42c-0.19,4.71-4.6,5.83-8,7.73a75.1,75.1,0,0,1-7.46,4c-1.52,5.16-3.17,10.18-4.7,15.33,5.67-3,11.7-6.81,17.54-10.08,0.9-3.53,1-8.19,2.35-11.6,1-2.63,4.29-5.18,7.6-3.45,0.77,2.38-.61,4.76-0.83,7,2.53-.72,5.86-4.81,9.53-2.62,1,5.05-4.44,6-7.32,8.15C265,37.77,269,38.23,269,40.31c0,2.76-3,5.55-6.21,5.38-1.7-.09-3.76-1.61-5.25-2.49-1.71-1-3.34-2-4.7-2.9-6,3.24-11.67,6.84-17.68,10.08,4,2.28,8.29,4.24,12.43,6.35,1.91-1.24,4.39-2.61,6.9-4.14,2.33-1.42,4.6-3.32,6.77-4.14,1.73-.66,3.88-0.58,4.7,1-0.32,5.49-5.71,5.89-9,8.43C258.24,58.84,260.16,59.18,261.12,60.47Zm65.74,20.18H300.58l18.17-47.34q1.42-3.7-4.51-3.7-6.14,0-7.55,3.7L288.52,80.66h-25L287.1,19.26h25l-0.64,1.66a29.59,29.59,0,0,1,9.9-1.66q29.08,0,24,13.22Zm34.89,0H335.47l17.64-46h26.28Zm89.36-45.4-9.48,24.69H404.15l-2.84,7.4q-1.63,4.25,5,4.25t8.31-4.25l1-2.59h24.12L438.15,69q-5,12.95-36.84,12.94T374.4,69l13-33.75a21,21,0,0,1,11-11.74q9-4.25,27-4.25t23.78,4.25Q454.16,27.31,451.11,35.26Zm34,45.4H455.22l2-61.39H484L479.8,55.32h0.43l23.32-36.06h26.71Zm60.34-9.06q6.67,0,8.31-4.25l1-2.59h24.12L577.28,69q-5,12.95-36.84,12.94T513.53,69l13-33.75a21,21,0,0,1,11-11.74q9-4.25,27-4.25t23.78,4.25q5,3.79,2,11.74l-9.48,24.69H543.29l-2.84,7.4Q538.81,71.59,545.49,71.59ZM599,80.66H579.7L583.39,71h19.3ZM641.4,70.3H622.66L621.24,74q-0.82,2.13,2.52,2.13T627.92,74l0.5-1.29h12.06l-0.82,2.13q-2.48,6.47-18.42,6.47t-13.45-6.47L614.26,58a10.5,10.5,0,0,1,5.49-5.87Q624.22,50,633.27,50t11.89,2.13q2.5,1.9,1,5.87ZM686.09,58l-1,2.59H672.17l0.71-1.85q1-2.73-2.83-2.73T665,59.16q-0.85,2.22,4.13,3.56a79.1,79.1,0,0,1,9.09,2.68q4.62,2.26,2.85,6.89a11.71,11.71,0,0,1-5.66,6.61q-4.8,2.4-15.14,2.4-9.69,0-12.82-1.94-2.86-1.8-1.25-6l0.57-1.48h13.35l-0.27.69q-1,2.73,2.83,2.73t4.92-2.73q0.94-2.73-3.9-4.16l-9.11-2.64q-4.64-2.22-2.83-6.93a11.54,11.54,0,0,1,5.91-6.43q5-2.45,14.72-2.45,9.15,0,12.34,2.08Q687.63,53.94,686.09,58Z" transform="translate(-2.38 -11.6)" style="fill:#fff"/><path d="M422.47,29.62q-6.68,0-8.42,4.53l-6.42,16.74H421l6.42-16.74Q429.15,29.62,422.47,29.62Z" transform="translate(-2.38 -11.6)" style="fill:#fff"/><path d="M631.82,55.14q-3.34,0-4.21,2.27l-3.21,8.37h6.68l3.21-8.37Q635.16,55.14,631.82,55.14Z" transform="translate(-2.38 -11.6)" style="fill:#fff"/></svg>