<?xml version="1.0" encoding="utf-8"?>
<svg version="1.1" id="Capa_1" xmlns="http://www.w3.org/2000/svg" xmlns:xlink="http://www.w3.org/1999/xlink" x="0px" y="0px"
	 width="419.5px" height="59.5px" viewBox="0 0 419.5 59.5" style="enable-background:new 0 0 419.5 59.5;" xml:space="preserve">
<path style="fill-rule:evenodd;clip-rule:evenodd;fill:#FFFFFF;" d="M77.5,34.4h-8.2V19.8c0-1.7-0.4-3.1-1.2-4.1
	c-0.8-1-1.9-1.5-3.4-1.5c-1.9,0-3.4,0.7-4.5,2.1c-1,1.4-1.6,3.4-1.6,6v12h-8.2V8.2h7.7v4.5c1-1.7,2.3-2.9,3.9-3.8
	c1.6-0.9,3.5-1.3,5.8-1.3c3.2,0,5.6,0.9,7.2,2.8c1.7,1.8,2.5,4.4,2.5,7.8V34.4z"/>
<path style="fill-rule:evenodd;clip-rule:evenodd;fill:#FFFFFF;" d="M89.5,18.7h10.8l0.6,0.1c0-1.9-0.5-3.3-1.5-4.2
	c-1-1-2.3-1.4-4.1-1.4c-1.9,0-3.4,0.7-4.4,2.2C90.2,16.1,89.8,17.2,89.5,18.7z M106.3,33.5c-1.3,0.5-2.7,0.8-4.3,1.1
	c-1.6,0.3-3.3,0.4-5.2,0.4c-4.8,0-8.5-1.2-11.3-3.6c-2.7-2.4-4.1-5.8-4.1-10.1c0-4.2,1.2-7.5,3.7-9.9c2.5-2.5,5.8-3.8,9.9-3.8
	c4.6,0,7.9,1.4,10.1,4.1c2.1,2.7,3.2,6.5,3.2,11.4l0.1,0.6H89.5c0.4,1.6,1,2.8,1.8,3.6c1.4,1.3,3.5,2,6.3,2c1.8,0,3.5-0.2,5.2-0.7
	c1.7-0.5,2.9-0.9,3.5-1.3V33.5z"/>
<polygon style="fill-rule:evenodd;clip-rule:evenodd;fill:#FFFFFF;" points="139.6,8.2 129.4,34.4 120.2,34.4 110.1,8.2 118.9,8.2 
	125.1,26.6 131.3,8.2 "/>
<path style="fill-rule:evenodd;clip-rule:evenodd;fill:#FFFFFF;" d="M159.2,30c-1,1.7-2.3,3-3.8,3.8c-1.5,0.8-3.1,1.2-4.9,1.2
	c-3,0-5.4-0.7-7.1-2.2c-1.7-1.5-2.6-3.5-2.6-5.8c0-2.9,1.1-5.1,3.4-6.6c2.3-1.6,5.6-2.3,9.9-2.4l4.7,0.1c0-1.8-0.6-3-1.7-3.7
	c-1.1-0.7-2.6-1.1-4.5-1.1c-1.5,0-3,0.2-4.6,0.7c-1.5,0.5-2.8,1.1-3.9,2l-0.2-6.3c1.1-0.6,2.5-1,4.4-1.4c1.9-0.4,3.8-0.6,5.7-0.6
	c4.3,0,7.4,0.9,9.4,2.7c2,1.8,3.1,4.7,3.1,8.6v7.6c0,2.1,0.1,3.9,0.2,5.4c0.1,1.5,0.3,2.2,0.4,2.2l0.1,0.1l-7.5,0.1
	c-0.1,0-0.2-0.4-0.3-1.3C159.3,32.2,159.3,31.2,159.2,30z M158.9,23v-0.6c-0.2,0.1-0.7,0.2-1.3,0.2c-0.6,0-1.4,0-2.3,0.1
	c-2.2,0-3.9,0.4-5,1c-1.1,0.6-1.6,1.5-1.6,2.7c0,0.9,0.4,1.7,1.1,2.2c0.7,0.5,1.7,0.8,3.1,0.8c1.8,0,3.3-0.7,4.4-2
	C158.3,25.9,158.9,24.5,158.9,23z"/>
<path style="fill-rule:evenodd;clip-rule:evenodd;fill:#FFFFFF;" d="M191.8,26.4c0,2.7-1.1,4.9-3.2,6.4c-2.2,1.5-5.1,2.2-8.9,2.2
	c-1.7,0-3.4-0.1-5-0.4c-1.6-0.2-2.9-0.6-4-1l0.5-6.3c0.4,0.2,1.4,0.5,3,1.1c1.6,0.5,3.3,0.8,5,0.8c1.3,0,2.3-0.2,3.1-0.5
	c0.8-0.4,1.2-1,1.2-2c0-0.8-0.4-1.4-1.2-1.9c-0.8-0.5-2.2-0.9-4.2-1.4c-2.1-0.4-3.9-1.2-5.4-2.3c-1.4-1.2-2.2-2.9-2.2-5.3
	c0-2.6,1.1-4.7,3.3-6.1c2.2-1.4,4.9-2.2,8.2-2.2c1.5,0,3,0.1,4.5,0.4c1.5,0.2,2.8,0.5,3.8,0.8l-0.5,6c-0.8-0.5-1.9-0.8-3.2-1.1
	c-1.3-0.3-2.5-0.4-3.8-0.4c-1.4,0-2.5,0.2-3.2,0.6c-0.7,0.4-1.1,0.9-1.1,1.6c0,0.6,0.4,1.1,1.2,1.5c0.8,0.4,2.4,0.9,4.8,1.5
	c2.5,0.6,4.4,1.6,5.6,2.9C191.2,22.6,191.8,24.3,191.8,26.4z"/>
<path style="fill-rule:evenodd;clip-rule:evenodd;fill:#FFFFFF;" d="M204,21.4c0,2,0.6,3.7,1.7,5.1c1.1,1.4,2.6,2.1,4.4,2.1
	c1.8,0,3.2-0.7,4.3-2.1c1.1-1.4,1.6-3.2,1.6-5.4c0-2.2-0.5-4-1.6-5.3c-1.1-1.3-2.5-2-4.3-2c-1.7,0-3.2,0.7-4.3,2
	c-1.1,1.3-1.7,2.9-1.8,4.9V21.4z M204,30.8v14.8h-8.2V8.2h7.8v4.5c1.2-2,2.6-3.3,4.1-4c1.6-0.7,3.3-1.1,5.1-1.1
	c3.6,0,6.5,1.3,8.6,3.8s3.2,5.8,3.2,10c0,4.1-1.1,7.4-3.4,9.9c-2.2,2.5-5.2,3.8-8.8,3.8c-1.6,0-3.1-0.3-4.7-1
	C206.1,33.4,204.9,32.3,204,30.8z"/>
<path style="fill-rule:evenodd;clip-rule:evenodd;fill:#FFFFFF;" d="M248.5,21.3c0-2.4-0.6-4.3-1.7-5.7c-1.1-1.4-2.7-2.1-4.8-2.1
	c-2.1,0-3.7,0.7-4.8,2.1c-1.1,1.3-1.6,3.2-1.6,5.7c0,2.4,0.6,4.2,1.7,5.6c1.1,1.4,2.7,2.1,4.8,2.1c2,0,3.6-0.7,4.8-2.1
	C248,25.5,248.5,23.7,248.5,21.3z M257.1,21.3c0,4.1-1.4,7.4-4.2,9.9c-2.7,2.5-6.4,3.8-10.9,3.8c-4.5,0-8.2-1.2-10.9-3.8
	c-2.7-2.5-4.1-5.8-4.1-9.9c0-4.2,1.4-7.5,4.1-10c2.8-2.5,6.4-3.8,10.9-3.8c4.5,0,8.1,1.3,10.9,3.8C255.8,13.8,257.1,17.1,257.1,21.3
	z"/>
<path style="fill-rule:evenodd;clip-rule:evenodd;fill:#FFFFFF;" d="M269.5,34.4h-8.2V8.2h7.5v5.9c0.8-2.3,1.9-4,3.3-5
	c1.4-1,2.9-1.5,4.5-1.5c0.7,0,1.2,0.1,1.6,0.2c0.4,0.1,0.8,0.1,1.2,0.2l-0.4,7.5c-0.3-0.1-0.7-0.2-1.2-0.3c-0.5-0.1-1.1-0.2-1.9-0.2
	c-2.1,0-3.7,0.8-4.8,2.4c-1.1,1.6-1.7,3.7-1.7,6.4V34.4z"/>
<path style="fill-rule:evenodd;clip-rule:evenodd;fill:#FFFFFF;" d="M293.8,24.7c0,1.4,0.3,2.5,0.9,3.3c0.6,0.7,1.6,1.1,2.8,1.1
	c0.7,0,1.4-0.1,1.9-0.2c0.6-0.1,1-0.3,1.3-0.4l0.2,5.9c-0.4,0.1-1.2,0.3-2.3,0.4c-1.1,0.1-2.2,0.2-3.4,0.2c-3.2,0-5.6-0.8-7.2-2.3
	c-1.6-1.6-2.4-3.9-2.4-6.9V14.1h-5.3V8.4l5.4-0.2l0.3-5.9l7.7-2.5l0.1,8.4h6.7v5.9h-6.7V24.7z"/>
<path style="fill-rule:evenodd;clip-rule:evenodd;fill:#FFFFFF;" d="M308.3,26.3c2.7,0,4,0,4.1,0.1c0,0,0.1,1.4,0.1,4s0,4-0.1,4
	c0,0-1.4,0.1-4.1,0.1c-2.7,0-4,0-4.1-0.1c0,0-0.1-1.4-0.1-4s0-4,0.1-4C304.3,26.3,305.6,26.3,308.3,26.3z"/>
<path style="fill-rule:evenodd;clip-rule:evenodd;fill:#FFFFFF;" d="M338.6,27.9l0.3,6.3c-0.5,0.1-1.4,0.3-2.6,0.5
	c-1.3,0.2-2.7,0.4-4.4,0.4c-4.7,0-8.4-1.2-11.1-3.7c-2.7-2.5-4.1-5.9-4.1-10.2c0-4,1.4-7.3,4.1-9.8c2.8-2.5,6.3-3.8,10.7-3.8
	c1.4,0,2.7,0.1,4,0.4c1.3,0.2,2.3,0.5,3.2,0.9l-0.6,6.2c-0.4-0.3-1.1-0.6-2.1-0.8c-1-0.3-2-0.4-3.2-0.4c-2.3,0-4.1,0.7-5.4,2
	c-1.3,1.3-2,3.1-2,5.3c0,2.3,0.7,4.2,2.1,5.6c1.4,1.4,3.3,2.1,5.7,2.1c1.3,0,2.5-0.1,3.5-0.4C337.6,28.1,338.3,27.9,338.6,27.9z"/>
<path style="fill-rule:evenodd;clip-rule:evenodd;fill:#FFFFFF;" d="M361.6,21.3c0-2.4-0.6-4.3-1.7-5.7c-1.1-1.4-2.7-2.1-4.8-2.1
	c-2.1,0-3.7,0.7-4.8,2.1c-1.1,1.3-1.6,3.2-1.6,5.7c0,2.4,0.6,4.2,1.7,5.6c1.1,1.4,2.7,2.1,4.8,2.1c2,0,3.6-0.7,4.8-2.1
	C361,25.5,361.6,23.7,361.6,21.3z M370.9,21.3c0,4.1-1.4,7.4-4.2,9.9c-2.7,2.5-6.4,3.8-10.9,3.8c-4.5,0-8.2-1.2-10.9-3.8
	c-2.8-2.5-4.1-5.8-4.1-9.9c0-4.2,1.4-7.5,4.1-10c2.8-2.5,6.4-3.8,10.9-3.8c4.5,0,8.1,1.3,10.9,3.8C369.5,13.8,370.9,17.1,370.9,21.3
	z"/>
<path style="fill-rule:evenodd;clip-rule:evenodd;fill:#FFFFFF;" d="M418.5,34.4h-8.2V19.8c0-1.8-0.4-3.2-1.1-4.1
	c-0.7-1-1.7-1.4-3.2-1.4c-1.7,0-3,0.7-3.8,2.1c-0.8,1.4-1.2,3.4-1.3,6.1v12h-8.4V19.8c0-1.8-0.3-3.2-0.9-4.1c-0.6-1-1.6-1.4-3-1.4
	c-1.8,0-3.2,0.7-4.1,2.1c-0.9,1.4-1.4,3.4-1.4,6v12.1h-8.2V8.2h7.7v4.5c1-1.7,2.2-2.9,3.7-3.8c1.5-0.9,3.3-1.3,5.5-1.3
	c2,0,3.8,0.5,5.2,1.5c1.5,1,2.5,2.2,3,3.8c0.8-1.5,1.9-2.7,3.4-3.7c1.5-1,3.5-1.5,5.9-1.5c3.2,0,5.5,0.9,6.9,2.6
	c1.5,1.8,2.2,4.4,2.2,8V34.4z"/>
<path style="fill:#FFFFFF;" d="M1.3,29.6c0-8,12-15.2,31.4-20.6c-10.5,4.2-16.6,9.2-16.9,14.8c-0.9,16.3,48.5,30.7,110.3,32.2
	c17.3,0.4,33.7-0.2,48.4-1.7c-17.6,3-38.6,4.8-61.1,4.8C51.4,59.2,1.3,46,1.3,29.6z"/>
</svg>
